<svg width="47" height="35" viewBox="0 0 47 35" fill="none" xmlns="http://www.w3.org/2000/svg">
<path fill-rule="evenodd" clip-rule="evenodd" d="M19.9358 9.4556C19.4241 9.1486 18.7869 9.14056 18.2676 9.43455C17.7484 9.72855 17.4274 10.2791 17.4274 10.8758V24.1258C17.4274 24.7225 17.7484 25.2731 18.2676 25.5671C18.7869 25.8611 19.4241 25.853 19.9358 25.546L30.9774 18.921C31.4763 18.6217 31.7816 18.0826 31.7816 17.5008C31.7816 16.919 31.4763 16.3799 30.9774 16.0806L19.9358 9.4556ZM26.9061 17.5008L20.7399 21.2006V13.8011L26.9061 17.5008Z" fill="white"/>
<path fill-rule="evenodd" clip-rule="evenodd" d="M34.6097 1.25032C27.2148 0.67177 19.786 0.67177 12.391 1.25031L7.44282 1.63744C4.43382 1.87285 1.97222 4.12801 1.47482 7.10494C0.324799 13.9878 0.324799 21.0138 1.47482 27.8967C1.97222 30.8736 4.43382 33.1288 7.44282 33.3642L12.391 33.7513C19.786 34.3299 27.2148 34.3299 34.6097 33.7513L39.5579 33.3642C42.5669 33.1288 45.0285 30.8736 45.5259 27.8967C46.6759 21.0138 46.6759 13.9878 45.5259 7.10494C45.0285 4.12801 42.5669 1.87285 39.5579 1.63744L34.6097 1.25032ZM12.6494 4.55272C19.8724 3.98763 27.1284 3.98763 34.3514 4.55272L39.2996 4.93985C40.7915 5.05657 42.0121 6.17477 42.2587 7.65084C43.3484 14.1723 43.3484 20.8293 42.2587 27.3508C42.0121 28.8269 40.7915 29.9451 39.2996 30.0618L34.3513 30.4489C27.1284 31.014 19.8723 31.014 12.6494 30.4489L7.70118 30.0618C6.20921 29.9451 4.98866 28.8269 4.74203 27.3508C3.6524 20.8293 3.6524 14.1723 4.74203 7.65084C4.98866 6.17476 6.20921 5.05657 7.70118 4.93985L12.6494 4.55272Z" fill="white"/>
</svg>
